<svg width="60" height="64" viewBox="0 0 60 64" fill="none" xmlns="http://www.w3.org/2000/svg">
<path d="M28.9984 0.023798C26.3298 0.230907 23.909 1.66709 22.4253 3.92153C21.7123 5.00461 21.2913 6.13522 21.0842 7.52048C21.0129 7.98902 21.0231 9.35051 21.1012 9.86319C21.5086 12.559 23.1112 14.8746 25.481 16.1919C27.9561 17.5636 30.9677 17.6315 33.4869 16.3651C36.1352 15.0307 37.9109 12.4945 38.2334 9.57459C38.2911 9.0687 38.2809 8.04334 38.2164 7.55443C37.8294 4.63792 36.0639 2.17638 33.4326 0.882793C32.4548 0.404064 31.5109 0.139236 30.4075 0.0339851C30.0577 0.00342751 29.3482 -0.00336266 28.9984 0.023798ZM30.4244 4.12524C31.3377 4.27463 32.1967 4.7228 32.886 5.41543C33.7246 6.25066 34.1727 7.2896 34.2169 8.48812C34.244 9.24186 34.1082 9.91072 33.7891 10.5796C33.1678 11.8834 32.0575 12.7695 30.6146 13.1124C30.1936 13.2143 29.1988 13.2211 28.7608 13.1294C27.8746 12.9393 27.1277 12.5454 26.486 11.9275C25.5727 11.0549 25.0838 9.90733 25.0838 8.6409C25.0804 7.87698 25.2332 7.22849 25.5659 6.5766C26.228 5.27283 27.4163 4.39347 28.8796 4.12524C29.2157 4.06073 30.034 4.06413 30.4244 4.12524Z" fill="white"/>
<path d="M8.70842 11.5472C7.0855 11.6932 5.58142 12.2738 4.2471 13.2686C3.74461 13.6455 2.95353 14.4366 2.57666 14.939C1.65316 16.1749 1.09295 17.5466 0.882444 19.0812C0.82133 19.5022 0.82133 20.7992 0.882444 21.2202C1.01486 22.1879 1.29666 23.1148 1.70069 23.9296C2.17263 24.8735 2.63098 25.5152 3.36435 26.2452C4.70206 27.5829 6.32498 28.4045 8.20253 28.6965C8.81367 28.7916 10.0326 28.7984 10.6063 28.7135C12.5552 28.4181 14.1917 27.6032 15.5566 26.2452C16.8977 24.9108 17.7567 23.1725 18.0181 21.2542C18.0962 20.6804 18.0962 19.6211 18.0181 19.0473C17.6243 16.1545 15.852 13.6794 13.2648 12.413C12.983 12.2738 12.579 12.0972 12.3651 12.0192C11.2412 11.6117 9.90693 11.4386 8.70842 11.5472ZM10.569 15.7132C12.0968 16.1104 13.2987 17.2274 13.7978 18.7179C13.971 19.2238 14.0083 19.492 14.0083 20.1507C14.0083 20.8094 13.971 21.0742 13.8012 21.5835C13.3055 23.0706 12.0629 24.2148 10.5249 24.6019C10.0393 24.7241 9.23468 24.7513 8.72539 24.6664C6.80031 24.3472 5.27585 22.8397 4.94312 20.9316C4.87522 20.531 4.87522 19.7705 4.94312 19.3698C5.23511 17.6994 6.47097 16.2903 8.0837 15.7879C8.62014 15.6181 8.88157 15.5841 9.56062 15.5977C10.1106 15.6079 10.2125 15.6215 10.569 15.7132Z" fill="white"/>
<path d="M49.75 11.5438C49.0404 11.6151 48.161 11.8086 47.5533 12.0327C46.7758 12.3213 45.747 12.9019 45.1427 13.3908C43.3772 14.8202 42.233 16.8404 41.9546 19.0133C41.8154 20.1168 41.8697 21.1625 42.1243 22.198C42.8984 25.359 45.4414 27.8613 48.599 28.5675C49.3256 28.7305 49.6719 28.7678 50.5071 28.7678C51.1454 28.7712 51.3763 28.7576 51.7633 28.6965C53.6375 28.4045 55.2672 27.5795 56.6015 26.2451C57.3382 25.5084 57.8 24.8667 58.2685 23.9194C58.6793 23.0808 58.9442 22.2116 59.0868 21.2032C59.1411 20.806 59.1411 19.4954 59.0868 19.0982C58.9476 18.1136 58.6861 17.2376 58.2889 16.4194C57.8305 15.4755 57.3484 14.7998 56.6049 14.0529C55.8647 13.3161 55.2162 12.8544 54.2758 12.3926C53.4439 11.9818 52.68 11.7441 51.7701 11.6083C51.2506 11.5302 50.2219 11.4997 49.75 11.5438ZM51.2744 15.6385C52.9245 15.9135 54.3165 17.1086 54.8496 18.7077C55.0159 19.2034 55.077 19.5871 55.077 20.1507C55.077 20.7143 55.0159 21.098 54.8496 21.5937C54.3097 23.2064 52.9245 24.388 51.2404 24.6664C50.7006 24.758 49.9231 24.7241 49.4036 24.5883C47.3428 24.0518 45.9405 22.2558 45.9405 20.1507C45.9405 18.9182 46.4057 17.8012 47.2816 16.9219C47.9573 16.2428 48.7857 15.8116 49.7432 15.6351C50.0997 15.5706 50.884 15.5706 51.2744 15.6385Z" fill="white"/>
<path d="M25.1211 21.8991C24.7136 21.9704 24.2519 22.1606 23.9327 22.3948C23.6441 22.6087 23.3114 22.9992 23.1484 23.3184C22.9074 23.7801 22.8395 24.0687 22.8395 24.5984C22.8395 25.128 22.9074 25.4132 23.1484 25.8852C23.2809 26.1364 23.3657 26.2519 23.634 26.5167C24.0719 26.9513 24.4794 27.172 25.0532 27.284C26.306 27.5251 27.603 26.8189 28.0851 25.6339C28.428 24.7919 28.3227 23.8107 27.8135 23.0569C27.6505 22.8125 27.2702 22.4492 27.0122 22.2896C26.4554 21.9399 25.7424 21.7939 25.1211 21.8991Z" fill="white"/>
<path d="M33.3102 21.9128C32.2136 22.1471 31.3784 22.9755 31.1577 24.0484C30.8759 25.4065 31.6703 26.7612 33.0047 27.2026C33.3034 27.3011 33.3645 27.3079 33.8025 27.3113C34.339 27.3146 34.5563 27.2705 34.9637 27.0804C35.7208 26.7205 36.2471 26.1025 36.4745 25.3047C36.5832 24.9278 36.5832 24.2691 36.4745 23.8922C36.3455 23.4373 36.1248 23.0536 35.7921 22.7039C35.456 22.3508 35.0486 22.103 34.563 21.9671C34.2371 21.8755 33.6192 21.8483 33.3102 21.9128Z" fill="white"/>
<path d="M21.1893 28.8763C20.1708 29.1038 19.3763 29.8576 19.0979 30.8659C19.0504 31.0289 19.0368 31.2055 19.0368 31.5755C19.0368 32.0407 19.0436 32.0848 19.1454 32.3904C19.305 32.8555 19.485 33.1373 19.8449 33.4938C20.198 33.8436 20.5714 34.0608 21.0366 34.1967C21.3931 34.2951 22.0721 34.3053 22.4116 34.2102C23.9836 33.779 24.8392 32.1935 24.3265 30.6622C24.1941 30.2684 24.0006 29.9662 23.6543 29.6233C23.291 29.2634 23.0771 29.1276 22.6085 28.968C22.2996 28.8628 22.2147 28.8492 21.8378 28.839C21.5458 28.8288 21.3387 28.8424 21.1893 28.8763Z" fill="white"/>
<path d="M37.7207 28.8728C37.388 28.9441 37.0621 29.0833 36.7497 29.2871C35.6191 30.034 35.2151 31.5211 35.8092 32.7468C36.3321 33.8197 37.5102 34.4411 38.6748 34.2577C39.561 34.1151 40.3045 33.5753 40.6984 32.7808C40.9021 32.37 40.9836 32.0203 40.987 31.5857C40.987 31.3955 40.9768 31.1816 40.9632 31.1103C40.7866 30.0748 40.0193 29.2158 39.0143 28.9272C38.6884 28.8321 38.0433 28.8083 37.7207 28.8728Z" fill="white"/>
<path d="M8.84774 34.1796C6.79363 34.346 4.97039 35.1541 3.51384 36.5427C2.07766 37.9144 1.20169 39.612 0.896121 41.6152C0.824821 42.0803 0.814636 43.4045 0.879145 43.8493C1.02514 44.8644 1.28657 45.7268 1.69739 46.5654C2.00296 47.1834 2.16933 47.455 2.58015 48.0084C2.8993 48.4362 3.60212 49.1628 4.02312 49.5023C4.69877 50.049 5.69697 50.616 6.50164 50.9113C7.57453 51.3052 8.89188 51.4919 10.0123 51.4104C10.8407 51.3459 11.4009 51.2373 12.1581 50.9894C14.7554 50.1406 16.8265 48.0492 17.6753 45.428C17.9571 44.5487 18.076 43.7847 18.076 42.8137C18.0794 41.7849 17.9605 41.0346 17.6414 40.0771C17.2238 38.8107 16.5379 37.6903 15.5873 36.7328C14.1137 35.2457 12.2769 34.3799 10.1889 34.1932C9.82896 34.1593 9.17029 34.1525 8.84774 34.1796ZM10.2262 38.2845C11.4485 38.4882 12.5621 39.2148 13.2581 40.2605C13.5943 40.7664 13.8082 41.2689 13.9406 41.8732C14.0255 42.2535 14.0458 43.0683 13.9779 43.4826C13.7063 45.2141 12.4942 46.63 10.8238 47.163C10.3586 47.3124 10.0938 47.3463 9.42493 47.3463C8.84095 47.3463 8.74588 47.3362 8.42334 47.2547C7.948 47.1358 7.58132 46.9898 7.21464 46.7827C6.01273 46.0935 5.1775 44.9154 4.94323 43.5776C4.87533 43.1804 4.87193 42.4131 4.94323 42.0226C5.19448 40.6 6.11798 39.354 7.40477 38.7055C7.86991 38.4746 8.28074 38.3456 8.86471 38.2539C9.09898 38.2166 9.93082 38.2335 10.2262 38.2845Z" fill="white"/>
<path d="M49.7262 34.1899C47.5193 34.4139 45.5298 35.4189 44.0868 37.0317C41.2654 40.196 41.133 44.8678 43.771 48.1781C44.7964 49.4683 46.2495 50.4801 47.8079 50.9894C48.5685 51.2406 49.1355 51.3493 49.9673 51.4104C50.8534 51.4749 51.7362 51.39 52.6835 51.149C54.2419 50.7517 55.7663 49.835 56.863 48.6331C57.4537 47.9846 57.851 47.404 58.2482 46.5994C58.6828 45.7234 58.9408 44.878 59.0868 43.8492C59.1411 43.452 59.1411 42.1414 59.0868 41.7442C58.8899 40.3691 58.4112 39.0858 57.6982 38.0197C56.3197 35.9588 54.1536 34.5973 51.6954 34.2374C51.2744 34.1763 50.1371 34.1491 49.7262 34.1899ZM51.4578 38.3116C52.3405 38.512 53.0875 38.9194 53.7258 39.5475C54.4014 40.2164 54.8598 41.0889 55.0228 42.0226C55.0907 42.4165 55.0907 43.1634 55.0228 43.5674C54.7919 44.9119 53.9567 46.0901 52.7514 46.7827C52.3847 46.9898 52.018 47.1358 51.5427 47.2546C51.2201 47.3361 51.1251 47.3463 50.5411 47.3463C49.8722 47.3463 49.6074 47.3124 49.1423 47.163C47.4718 46.6299 46.2597 45.2141 45.9881 43.4826C45.9202 43.0649 45.9406 42.2535 46.0255 41.863C46.2224 40.9633 46.64 40.2062 47.2953 39.5543C47.9811 38.8753 48.7858 38.4542 49.7262 38.2811C50.0861 38.2166 51.1217 38.2336 51.4578 38.3116Z" fill="white"/>
<path d="M25.0735 36.2303C24.9785 36.2473 24.7679 36.3084 24.605 36.3661C23.8648 36.6344 23.2231 37.2896 22.9753 38.0298C22.4626 39.5611 23.3182 41.1467 24.8902 41.5778C25.2297 41.6729 25.9087 41.6627 26.2618 41.5643C26.7372 41.4285 27.1072 41.2112 27.4569 40.8615C27.9866 40.3386 28.2412 39.7784 28.2752 39.0654C28.3431 37.7005 27.4332 36.5223 26.1023 36.2473C25.8272 36.1896 25.3587 36.1828 25.0735 36.2303Z" fill="white"/>
<path d="M33.9826 36.227C33.7449 36.2678 33.4937 36.356 33.2255 36.4884C32.9199 36.6412 32.7264 36.7838 32.4921 37.0317C32.156 37.3848 31.9726 37.7039 31.83 38.186C31.7112 38.5867 31.701 39.191 31.813 39.6052C32.1763 40.9871 33.5446 41.863 34.9401 41.6118C35.9349 41.4318 36.7362 40.7256 37.0689 39.741C37.1504 39.4932 37.1606 39.4219 37.1606 38.9432C37.164 38.4814 37.1538 38.3864 37.0859 38.1623C36.7973 37.2422 36.1046 36.553 35.2117 36.2949C34.9265 36.2134 34.2576 36.1761 33.9826 36.227Z" fill="white"/>
<path d="M28.9509 46.7524C27.8407 46.8474 26.7882 47.1462 25.79 47.6521C24.8699 48.1173 24.1195 48.6707 23.4201 49.3972C22.3777 50.4871 21.6308 51.835 21.2777 53.2712C21.1079 53.9672 21.0536 54.3814 21.0298 55.1385C20.9585 57.5865 21.882 59.8409 23.6578 61.5555C25.2365 63.0833 27.1684 63.905 29.3719 63.9864C32.1594 64.0917 34.8858 62.7778 36.563 60.5233C37.5884 59.1483 38.1656 57.5695 38.2641 55.8719C38.5323 51.3189 35.2016 47.3364 30.6621 46.7863C30.2343 46.7354 29.3719 46.7184 28.9509 46.7524ZM30.3939 50.847C32.3699 51.1831 33.874 52.7178 34.1796 54.7141C34.2441 55.1284 34.2271 55.8413 34.1422 56.242C33.8469 57.6578 32.9437 58.8325 31.6603 59.4776C31.3446 59.6372 30.764 59.8205 30.3803 59.8782C29.9084 59.9563 29.0324 59.9292 28.625 59.8273C27.2431 59.481 26.1329 58.5949 25.5353 57.3624C25.0192 56.3031 24.9344 55.0672 25.301 53.94C25.8137 52.3613 27.2058 51.1492 28.8457 50.8572C29.2837 50.7791 29.9729 50.7757 30.3939 50.847Z" fill="white"/>
</svg>
