<svg width="52" height="55" viewBox="0 0 52 55" fill="none" xmlns="http://www.w3.org/2000/svg">
<path d="M2.64835 42.9002C1.00661 42.0752 0 40.6216 0 39.0431V30.2707C0 29.9297 0.109217 29.6072 0.306087 29.3202C0.941217 28.4229 2.36383 28.1181 3.45809 28.6383L27.5993 40.1735C29.0003 40.8547 29.8755 42.0929 29.8755 43.4204V52.4977C29.8755 52.9102 29.7447 53.3227 29.4817 53.682C28.6936 54.7402 26.9864 55.0811 25.6953 54.4354L2.64835 42.9002ZM38.6303 26.252C40.0313 26.9338 40.9071 28.172 40.9071 29.4995V47.9233C40.9071 48.4619 40.5565 48.9637 39.9659 49.233L34.6908 51.6904C34.6229 51.7252 34.549 51.7494 34.4723 51.762V41.5366C34.4723 40.209 33.6188 38.9892 32.2393 38.3074L11.0539 27.9204V16.3497C11.0539 16.0088 11.1631 15.6856 11.36 15.3992C11.9944 14.5019 13.4177 14.1972 14.5113 14.7174L38.631 26.252H38.6303ZM49.1798 12.6535C50.6031 13.3183 51.4783 14.5742 51.4783 15.9188V42.8286C51.4783 43.3843 51.1061 43.8868 50.5155 44.1561L45.5033 46.3803V27.6334C45.5033 26.3058 44.6497 25.086 43.2703 24.4042L21.6035 13.7485V2.78741C21.6035 2.4465 21.7127 2.12333 21.9096 1.83692C22.5447 0.939648 23.9673 0.634856 25.0609 1.15509L49.1805 12.6542L49.1798 12.6535Z" fill="#00D395"/>
</svg>
