<svg width="64" height="64" viewBox="0 0 64 64" fill="none" xmlns="http://www.w3.org/2000/svg">
<path d="M60.4485 13.7155C61.1141 13.7155 61.7647 13.5415 62.3181 13.2154C62.8715 12.8894 63.3028 12.4259 63.5575 11.8837C63.8123 11.3415 63.8789 10.7449 63.749 10.1693C63.6192 9.59367 63.2987 9.06495 62.8281 8.64996C62.3574 8.23497 61.7578 7.95236 61.105 7.83786C60.4523 7.72337 59.7756 7.78213 59.1607 8.00672C58.5458 8.23131 58.0203 8.61164 57.6505 9.09962C57.2807 9.58759 57.0833 10.1613 57.0833 10.7482C57.0833 11.1379 57.1703 11.5237 57.3394 11.8838C57.5085 12.2438 57.7564 12.5709 58.0689 12.8465C58.3814 13.122 58.7524 13.3406 59.1607 13.4897C59.569 13.6388 60.0066 13.7155 60.4485 13.7155Z" fill="url(#paint0_linear)"/>
<path d="M45.8973 25.3099C46.5502 25.3099 47.1763 25.0812 47.6379 24.6742C48.0996 24.2671 48.359 23.715 48.359 23.1393C48.359 22.5636 48.0996 22.0115 47.6379 21.6044C47.1763 21.1974 46.5502 20.9687 45.8973 20.9687C45.2444 20.9687 44.6183 21.1974 44.1566 21.6044C43.695 22.0115 43.4356 22.5636 43.4356 23.1393C43.4356 23.715 43.695 24.2671 44.1566 24.6742C44.6183 25.0812 45.2444 25.3099 45.8973 25.3099Z" fill="url(#paint1_linear)"/>
<path d="M36.2254 4.72591C36.9362 4.72591 37.6178 4.47696 38.1203 4.03382C38.6229 3.59068 38.9052 2.98965 38.9052 2.36296C38.9052 1.73626 38.6229 1.13523 38.1203 0.692094C37.6178 0.248954 36.9362 0 36.2254 0C35.5147 0 34.8331 0.248954 34.3305 0.692094C33.828 1.13523 33.5457 1.73626 33.5457 2.36296C33.5457 2.98965 33.828 3.59068 34.3305 4.03382C34.8331 4.47696 35.5147 4.72591 36.2254 4.72591Z" fill="url(#paint2_linear)"/>
<path d="M36.2254 63.8357C36.9362 63.8357 37.6178 63.5868 38.1203 63.1436C38.6229 62.7005 38.9052 62.0995 38.9052 61.4728C38.9052 60.8461 38.6229 60.2451 38.1203 59.8019C37.6178 59.3588 36.9362 59.1098 36.2254 59.1098C35.5147 59.1098 34.8331 59.3588 34.3305 59.8019C33.828 60.2451 33.5457 60.8461 33.5457 61.4728C33.5457 62.0995 33.828 62.7005 34.3305 63.1436C34.8331 63.5868 35.5147 63.8357 36.2254 63.8357Z" fill="url(#paint3_linear)"/>
<path d="M48.1159 58.7034C48.4186 58.7068 48.7191 58.657 48.9999 58.5572C49.2806 58.4573 49.5362 58.3093 49.7516 58.1217C49.967 57.9341 50.138 57.7106 50.2547 57.4643C50.3714 57.2179 50.4315 56.9536 50.4315 56.6867C50.4314 56.4197 50.3713 56.1554 50.2546 55.9091C50.1378 55.6627 49.9667 55.4393 49.7513 55.2517C49.5359 55.0642 49.2803 54.9162 48.9995 54.8163C48.7187 54.7165 48.4182 54.6668 48.1155 54.6702C47.5139 54.6769 46.9395 54.8923 46.5168 55.2698C46.0941 55.6473 45.857 56.1565 45.8571 56.687C45.8571 57.2175 46.0942 57.7266 46.517 58.1041C46.9398 58.4815 47.5143 58.6969 48.1159 58.7034Z" fill="url(#paint4_linear)"/>
<path d="M8.18843 23.5022C8.74705 23.5022 9.28279 23.3065 9.6778 22.9582C10.0728 22.6099 10.2947 22.1375 10.2947 21.6449C10.2947 21.1523 10.0728 20.6799 9.6778 20.3316C9.28279 19.9833 8.74705 19.7876 8.18843 19.7876C7.62981 19.7876 7.09407 19.9833 6.69907 20.3316C6.30406 20.6799 6.08215 21.1523 6.08215 21.6449C6.08215 22.1375 6.30406 22.6099 6.69907 22.9582C7.09407 23.3065 7.62981 23.5022 8.18843 23.5022Z" fill="url(#paint5_linear)"/>
<path d="M8.18844 44.3558C8.74702 44.3558 9.28273 44.1602 9.67773 43.8119C10.0727 43.4637 10.2947 42.9913 10.2947 42.4988C10.2948 42.0063 10.0729 41.5339 9.67799 41.1856C9.28305 40.8373 8.74737 40.6416 8.1888 40.6416C7.63023 40.6416 7.09453 40.8372 6.69956 41.1855C6.30459 41.5338 6.0827 42.0061 6.0827 42.4987C6.0827 42.9912 6.30459 43.4636 6.69956 43.8118C7.09453 44.1601 7.63023 44.3558 8.1888 44.3558H8.18844Z" fill="url(#paint6_linear)"/>
<path d="M2.78561 34.4537C3.5244 34.4537 4.23293 34.1949 4.75533 33.7343C5.27773 33.2737 5.57122 32.6489 5.57122 31.9974C5.57122 31.346 5.27773 30.7212 4.75533 30.2606C4.23293 29.8 3.5244 29.5412 2.78561 29.5412C2.04682 29.5412 1.33829 29.8 0.815886 30.2606C0.293483 30.7212 0 31.346 0 31.9974C0 32.6489 0.293483 33.2737 0.815886 33.7343C1.33829 34.1949 2.04682 34.4537 2.78561 34.4537Z" fill="url(#paint7_linear)"/>
<path d="M11.8904 35.8605C14.3098 35.8605 16.271 34.1309 16.271 31.9975C16.271 29.864 14.3098 28.1345 11.8904 28.1345C9.47052 28.1345 7.5094 29.864 7.5094 31.9975C7.5094 34.1309 9.47052 35.8605 11.8904 35.8605Z" fill="url(#paint8_linear)"/>
<path d="M24.4538 58.7034C25.0604 58.7034 25.6421 58.491 26.071 58.1127C26.5 57.7345 26.741 57.2215 26.741 56.6867C26.741 56.1518 26.5 55.6388 26.071 55.2606C25.6421 54.8824 25.0604 54.6699 24.4538 54.6699C23.8472 54.6699 23.2654 54.8824 22.8365 55.2606C22.4075 55.6388 22.1666 56.1518 22.1666 56.6867C22.1666 57.2215 22.4075 57.7345 22.8365 58.1127C23.2654 58.491 23.8472 58.7034 24.4538 58.7034Z" fill="url(#paint9_linear)"/>
<path d="M48.1159 8.98999C48.4186 8.99331 48.7191 8.94359 48.9999 8.84373C49.2806 8.74386 49.5362 8.59583 49.7516 8.40822C49.967 8.22061 50.138 7.99716 50.2547 7.75083C50.3714 7.50449 50.4315 7.24017 50.4315 6.9732C50.4314 6.70623 50.3713 6.44192 50.2546 6.1956C50.1378 5.94928 49.9667 5.72586 49.7513 5.53828C49.5359 5.3507 49.2803 5.20271 48.9995 5.10288C48.7187 5.00305 48.4182 4.95337 48.1155 4.95673C47.5139 4.96341 46.9395 5.17883 46.5168 5.55633C46.0941 5.93383 45.857 6.443 45.8571 6.97352C45.8571 7.50404 46.0942 8.01317 46.517 8.39062C46.9398 8.76806 47.5143 8.9834 48.1159 8.98999Z" fill="url(#paint10_linear)"/>
<path d="M24.4538 8.98998C25.0604 8.98998 25.6421 8.7775 26.071 8.39928C26.5 8.02106 26.741 7.50808 26.741 6.97319C26.741 6.43831 26.5 5.92533 26.071 5.54711C25.6421 5.16889 25.0604 4.95641 24.4538 4.95641C23.8472 4.95641 23.2654 5.16889 22.8365 5.54711C22.4075 5.92533 22.1666 6.43831 22.1666 6.97319C22.1666 7.50808 22.4075 8.02106 22.8365 8.39928C23.2654 8.7775 23.8472 8.98998 24.4538 8.98998Z" fill="url(#paint11_linear)"/>
<path d="M45.8973 42.5864C46.2205 42.5864 46.5406 42.5303 46.8393 42.4212C47.1379 42.3121 47.4093 42.1522 47.6378 41.9507C47.8664 41.7491 48.0477 41.5098 48.1714 41.2465C48.295 40.9831 48.3587 40.7008 48.3586 40.4158C48.3586 39.8402 48.0993 39.2882 47.6377 38.8812C47.1761 38.4741 46.5501 38.2455 45.8973 38.2455C45.2445 38.2455 44.6184 38.4742 44.1567 38.8812C43.6951 39.2882 43.4358 39.8403 43.4358 40.416C43.4358 40.9916 43.6951 41.5437 44.1567 41.9507C44.6184 42.3578 45.2445 42.5864 45.8973 42.5864Z" fill="url(#paint12_linear)"/>
<path d="M36.2254 45.7572C36.5512 45.7606 36.8745 45.707 37.1766 45.5994C37.4787 45.4919 37.7537 45.3325 37.9854 45.1306C38.2172 44.9286 38.4012 44.6881 38.5267 44.423C38.6523 44.1579 38.7169 43.8735 38.7169 43.5862C38.7169 43.2989 38.6522 43.0145 38.5266 42.7494C38.401 42.4843 38.2169 42.2438 37.9852 42.0419C37.7534 41.84 37.4784 41.6807 37.1763 41.5732C36.8742 41.4657 36.5508 41.4121 36.225 41.4156C35.5772 41.4225 34.9587 41.6543 34.5034 42.0606C34.0481 42.467 33.7928 43.0153 33.7928 43.5865C33.7929 44.1578 34.0483 44.706 34.5036 45.1123C34.959 45.5186 35.5776 45.7503 36.2254 45.7572Z" fill="url(#paint13_linear)"/>
<path d="M36.2254 22.0406C36.8783 22.0406 37.5045 21.8119 37.9661 21.4048C38.4278 20.9978 38.6871 20.4456 38.6871 19.87C38.6871 19.2943 38.4278 18.7422 37.9661 18.3351C37.5045 17.928 36.8783 17.6993 36.2254 17.6993C35.5726 17.6993 34.9464 17.928 34.4848 18.3351C34.0231 18.7422 33.7638 19.2943 33.7638 19.87C33.7638 20.4456 34.0231 20.9978 34.4848 21.4048C34.9464 21.8119 35.5726 22.0406 36.2254 22.0406Z" fill="url(#paint14_linear)"/>
<path d="M26.6347 25.3099C26.9605 25.3134 27.2837 25.2598 27.5858 25.1523C27.8879 25.0448 28.1628 24.8855 28.3945 24.6836C28.6263 24.4817 28.8102 24.2412 28.9358 23.9762C29.0614 23.7111 29.1261 23.4267 29.1261 23.1395C29.1261 22.8522 29.0614 22.5678 28.9358 22.3028C28.8102 22.0377 28.6263 21.7973 28.3945 21.5954C28.1628 21.3935 27.8879 21.2342 27.5858 21.1266C27.2837 21.0191 26.9605 20.9655 26.6347 20.969C25.9818 20.969 25.3557 21.1977 24.894 21.6048C24.4324 22.0118 24.173 22.5639 24.173 23.1396C24.173 23.7153 24.4324 24.2674 24.894 24.6745C25.3557 25.0816 25.9818 25.3103 26.6347 25.3103V25.3099Z" fill="url(#paint15_linear)"/>
<path d="M22.3035 34.1681C22.9563 34.1681 23.5824 33.9394 24.044 33.5324C24.5056 33.1253 24.765 32.5733 24.765 31.9976C24.765 31.422 24.5056 30.8699 24.044 30.4629C23.5824 30.0558 22.9563 29.8271 22.3035 29.8271C21.6506 29.8271 21.0246 30.0558 20.5629 30.4629C20.1013 30.8699 19.842 31.422 19.842 31.9976C19.842 32.5733 20.1013 33.1253 20.5629 33.5324C21.0246 33.9394 21.6506 34.1681 22.3035 34.1681Z" fill="url(#paint16_linear)"/>
<path d="M26.6347 42.5864C27.2875 42.5864 27.9136 42.3578 28.3753 41.9507C28.8369 41.5437 29.0962 40.9916 29.0962 40.416C29.0962 39.8403 28.8369 39.2882 28.3753 38.8812C27.9136 38.4742 27.2875 38.2455 26.6347 38.2455C25.9819 38.2455 25.3558 38.4742 24.8942 38.8812C24.4326 39.2882 24.1732 39.8403 24.1732 40.416C24.1732 40.9916 24.4326 41.5437 24.8942 41.9507C25.3558 42.3578 25.9819 42.5864 26.6347 42.5864Z" fill="url(#paint17_linear)"/>
<path d="M43.579 50.6038C45.7163 50.6038 47.449 49.076 47.449 47.1913C47.449 45.3067 45.7163 43.7789 43.579 43.7789C41.4416 43.7789 39.7089 45.3067 39.7089 47.1913C39.7089 49.076 41.4416 50.6038 43.579 50.6038Z" fill="url(#paint18_linear)"/>
<path d="M36.2254 56.901C38.7618 56.901 40.8184 55.0879 40.8184 52.8511C40.8184 50.6145 38.7618 48.8014 36.2254 48.8014C33.689 48.8014 31.6324 50.6145 31.6324 52.8511C31.6324 55.0879 33.689 56.901 36.2254 56.901Z" fill="url(#paint19_linear)"/>
<path d="M36.2254 14.7982C38.7618 14.7982 40.8184 12.9848 40.8184 10.7482C40.8184 8.51172 38.7618 6.69859 36.2254 6.69859C33.689 6.69859 31.6324 8.5114 31.6324 10.7482C31.6324 12.9851 33.689 14.7982 36.2254 14.7982Z" fill="url(#paint20_linear)"/>
<path d="M53.4375 50.6038C55.5749 50.6038 57.3075 49.076 57.3075 47.1913C57.3075 45.3067 55.5749 43.7789 53.4375 43.7789C51.3005 43.7789 49.5678 45.3067 49.5678 47.1913C49.5678 49.076 51.3005 50.6038 53.4375 50.6038Z" fill="url(#paint21_linear)"/>
<path d="M43.579 19.6833C45.7163 19.6833 47.449 18.1555 47.449 16.2708C47.449 14.3861 45.7163 12.8583 43.579 12.8583C41.4416 12.8583 39.7089 14.3861 39.7089 16.2708C39.7089 18.1555 41.4416 19.6833 43.579 19.6833Z" fill="url(#paint22_linear)"/>
<path d="M53.4375 19.6833C55.5749 19.6833 57.3075 18.1555 57.3075 16.2708C57.3075 14.3861 55.5749 12.8583 53.4375 12.8583C51.3005 12.8583 49.5678 14.3861 49.5678 16.2708C49.5678 18.1555 51.3005 19.6833 53.4375 19.6833Z" fill="url(#paint23_linear)"/>
<path d="M28.8468 19.6833C30.9842 19.6833 32.7169 18.1555 32.7169 16.2708C32.7169 14.3861 30.9846 12.8583 28.8468 12.8583C26.7098 12.8583 24.9772 14.3861 24.9772 16.2708C24.9772 18.1555 26.7098 19.6833 28.8468 19.6833Z" fill="url(#paint24_linear)"/>
<path d="M18.7016 28.7829C20.6945 28.7829 22.3099 27.3586 22.3099 25.6012C22.3099 23.8442 20.6945 22.4198 18.7016 22.4198C16.709 22.4198 15.0933 23.8442 15.0933 25.6012C15.0933 27.3586 16.709 28.7829 18.7016 28.7829Z" fill="url(#paint25_linear)"/>
<path d="M18.7016 41.6577C20.6945 41.6577 22.3099 40.2333 22.3099 38.4763C22.3099 36.719 20.6945 35.2946 18.7016 35.2946C16.709 35.2946 15.0933 36.719 15.0933 38.4763C15.0933 40.2333 16.709 41.6577 18.7016 41.6577Z" fill="url(#paint26_linear)"/>
<path d="M19.0134 20.0459C21.3778 20.0459 23.2946 18.3557 23.2946 16.2708C23.2946 14.1859 21.3774 12.4958 19.0134 12.4958C16.6486 12.4958 14.7322 14.1856 14.7322 16.2708C14.7322 18.3557 16.6486 20.0459 19.0134 20.0459Z" fill="url(#paint27_linear)"/>
<path d="M28.8468 50.6038C30.9842 50.6038 32.7169 49.076 32.7169 47.1913C32.7169 45.3067 30.9842 43.7789 28.8468 43.7789C26.7098 43.7789 24.9772 45.3067 24.9772 47.1913C24.9772 49.076 26.7098 50.6038 28.8468 50.6038Z" fill="url(#paint28_linear)"/>
<path d="M19.0134 50.9664C21.3778 50.9664 23.2946 49.2763 23.2946 47.1914C23.2946 45.1065 21.3778 43.4163 19.0134 43.4163C16.6486 43.4163 14.7322 45.1065 14.7322 47.1914C14.7322 49.2763 16.6486 50.9664 19.0134 50.9664Z" fill="url(#paint29_linear)"/>
<path d="M60.4485 55.8184C60.8905 55.8185 61.3281 55.7417 61.7364 55.5926C62.1447 55.4435 62.5157 55.225 62.8282 54.9494C63.1407 54.6739 63.3885 54.3467 63.5576 53.9867C63.7267 53.6267 63.8138 53.2408 63.8137 52.8511C63.8137 52.0641 63.4592 51.3093 62.8281 50.7529C62.197 50.1964 61.341 49.8838 60.4485 49.8838C60.0066 49.8837 59.569 49.9604 59.1607 50.1095C58.7524 50.2587 58.3814 50.4772 58.0689 50.7528C57.7564 51.0283 57.5085 51.3555 57.3394 51.7155C57.1703 52.0755 57.0833 52.4614 57.0833 52.8511C57.0832 53.2408 57.1702 53.6267 57.3393 53.9867C57.5084 54.3468 57.7563 54.6739 58.0688 54.9495C58.3813 55.2251 58.7523 55.4436 59.1606 55.5927C59.5689 55.7418 60.0066 55.8185 60.4485 55.8184Z" fill="url(#paint30_linear)"/>
<path d="M12.9122 55.8184C13.3542 55.8185 13.7918 55.7417 14.2001 55.5926C14.6084 55.4435 14.9794 55.225 15.2919 54.9494C15.6044 54.6739 15.8523 54.3467 16.0214 53.9867C16.1905 53.6267 16.2775 53.2408 16.2774 52.8511C16.2774 52.2642 16.0801 51.6905 15.7103 51.2025C15.3405 50.7146 14.815 50.3342 14.2 50.1096C13.5851 49.885 12.9085 49.8263 12.2557 49.9408C11.6029 50.0553 11.0033 50.3379 10.5327 50.7529C10.0621 51.1679 9.74157 51.6966 9.61172 52.2722C9.48187 52.8478 9.54852 53.4444 9.80322 53.9866C10.0579 54.5288 10.4892 54.9923 11.0426 55.3183C11.596 55.6444 12.2467 55.8184 12.9122 55.8184Z" fill="url(#paint31_linear)"/>
<path d="M12.9122 13.7155C13.3542 13.7155 13.7918 13.6388 14.2 13.4896C14.6083 13.3405 14.9793 13.1219 15.2918 12.8464C15.6043 12.5709 15.8522 12.2437 16.0213 11.8837C16.1904 11.5237 16.2774 11.1379 16.2774 10.7482C16.2774 10.3585 16.1904 9.97265 16.0213 9.61263C15.8522 9.25262 15.6043 8.92551 15.2918 8.64996C14.9793 8.37442 14.6083 8.15585 14.2 8.00673C13.7918 7.85761 13.3542 7.78085 12.9122 7.78085C12.0197 7.78085 11.1638 8.09348 10.5327 8.64996C9.9016 9.20645 9.54706 9.9612 9.54706 10.7482C9.54706 11.5352 9.9016 12.2899 10.5327 12.8464C11.1638 13.4029 12.0197 13.7155 12.9122 13.7155Z" fill="url(#paint32_linear)"/>
<defs>
<linearGradient id="paint0_linear" x1="0.199541" y1="32.1459" x2="63.7637" y2="32.1459" gradientUnits="userSpaceOnUse">
<stop stop-color="#A56FA3"/>
<stop offset="0.882" stop-color="#DF8D94"/>
</linearGradient>
<linearGradient id="paint1_linear" x1="0.199568" y1="32.146" x2="63.7636" y2="32.146" gradientUnits="userSpaceOnUse">
<stop stop-color="#A56FA3"/>
<stop offset="0.882" stop-color="#DF8D94"/>
</linearGradient>
<linearGradient id="paint2_linear" x1="0.199502" y1="32.146" x2="63.7637" y2="32.146" gradientUnits="userSpaceOnUse">
<stop stop-color="#A56FA3"/>
<stop offset="0.882" stop-color="#DF8D94"/>
</linearGradient>
<linearGradient id="paint3_linear" x1="0.199502" y1="32.1459" x2="63.7637" y2="32.1459" gradientUnits="userSpaceOnUse">
<stop stop-color="#A56FA3"/>
<stop offset="0.882" stop-color="#DF8D94"/>
</linearGradient>
<linearGradient id="paint4_linear" x1="0.199572" y1="32.146" x2="63.7637" y2="32.146" gradientUnits="userSpaceOnUse">
<stop stop-color="#A56FA3"/>
<stop offset="0.882" stop-color="#DF8D94"/>
</linearGradient>
<linearGradient id="paint5_linear" x1="0.199517" y1="32.1459" x2="63.7637" y2="32.1459" gradientUnits="userSpaceOnUse">
<stop stop-color="#A56FA3"/>
<stop offset="0.882" stop-color="#DF8D94"/>
</linearGradient>
<linearGradient id="paint6_linear" x1="0.199533" y1="32.146" x2="63.7637" y2="32.146" gradientUnits="userSpaceOnUse">
<stop stop-color="#A56FA3"/>
<stop offset="0.882" stop-color="#DF8D94"/>
</linearGradient>
<linearGradient id="paint7_linear" x1="0.199508" y1="32.1459" x2="63.7637" y2="32.1459" gradientUnits="userSpaceOnUse">
<stop stop-color="#A56FA3"/>
<stop offset="0.882" stop-color="#DF8D94"/>
</linearGradient>
<linearGradient id="paint8_linear" x1="0.199455" y1="32.146" x2="63.7636" y2="32.146" gradientUnits="userSpaceOnUse">
<stop stop-color="#A56FA3"/>
<stop offset="0.882" stop-color="#DF8D94"/>
</linearGradient>
<linearGradient id="paint9_linear" x1="0.199559" y1="32.146" x2="63.7637" y2="32.146" gradientUnits="userSpaceOnUse">
<stop stop-color="#A56FA3"/>
<stop offset="0.882" stop-color="#DF8D94"/>
</linearGradient>
<linearGradient id="paint10_linear" x1="0.199572" y1="32.146" x2="63.7637" y2="32.146" gradientUnits="userSpaceOnUse">
<stop stop-color="#A56FA3"/>
<stop offset="0.882" stop-color="#DF8D94"/>
</linearGradient>
<linearGradient id="paint11_linear" x1="0.199559" y1="32.146" x2="63.7637" y2="32.146" gradientUnits="userSpaceOnUse">
<stop stop-color="#A56FA3"/>
<stop offset="0.882" stop-color="#DF8D94"/>
</linearGradient>
<linearGradient id="paint12_linear" x1="0.199488" y1="32.1459" x2="63.7637" y2="32.1459" gradientUnits="userSpaceOnUse">
<stop stop-color="#A56FA3"/>
<stop offset="0.882" stop-color="#DF8D94"/>
</linearGradient>
<linearGradient id="paint13_linear" x1="0.199484" y1="32.146" x2="63.7636" y2="32.146" gradientUnits="userSpaceOnUse">
<stop stop-color="#A56FA3"/>
<stop offset="0.882" stop-color="#DF8D94"/>
</linearGradient>
<linearGradient id="paint14_linear" x1="0.199546" y1="32.146" x2="63.7636" y2="32.146" gradientUnits="userSpaceOnUse">
<stop stop-color="#A56FA3"/>
<stop offset="0.882" stop-color="#DF8D94"/>
</linearGradient>
<linearGradient id="paint15_linear" x1="0.199496" y1="32.146" x2="63.7636" y2="32.146" gradientUnits="userSpaceOnUse">
<stop stop-color="#A56FA3"/>
<stop offset="0.882" stop-color="#DF8D94"/>
</linearGradient>
<linearGradient id="paint16_linear" x1="0.199514" y1="32.1459" x2="63.7637" y2="32.1459" gradientUnits="userSpaceOnUse">
<stop stop-color="#A56FA3"/>
<stop offset="0.882" stop-color="#DF8D94"/>
</linearGradient>
<linearGradient id="paint17_linear" x1="0.199489" y1="32.1459" x2="63.7637" y2="32.1459" gradientUnits="userSpaceOnUse">
<stop stop-color="#A56FA3"/>
<stop offset="0.882" stop-color="#DF8D94"/>
</linearGradient>
<linearGradient id="paint18_linear" x1="0.199496" y1="32.146" x2="63.7636" y2="32.146" gradientUnits="userSpaceOnUse">
<stop stop-color="#A56FA3"/>
<stop offset="0.882" stop-color="#DF8D94"/>
</linearGradient>
<linearGradient id="paint19_linear" x1="0.199526" y1="32.146" x2="63.7636" y2="32.146" gradientUnits="userSpaceOnUse">
<stop stop-color="#A56FA3"/>
<stop offset="0.882" stop-color="#DF8D94"/>
</linearGradient>
<linearGradient id="paint20_linear" x1="0.199526" y1="32.146" x2="63.7636" y2="32.146" gradientUnits="userSpaceOnUse">
<stop stop-color="#A56FA3"/>
<stop offset="0.882" stop-color="#DF8D94"/>
</linearGradient>
<linearGradient id="paint21_linear" x1="0.199486" y1="32.146" x2="63.7637" y2="32.146" gradientUnits="userSpaceOnUse">
<stop stop-color="#A56FA3"/>
<stop offset="0.882" stop-color="#DF8D94"/>
</linearGradient>
<linearGradient id="paint22_linear" x1="0.199496" y1="32.146" x2="63.7636" y2="32.146" gradientUnits="userSpaceOnUse">
<stop stop-color="#A56FA3"/>
<stop offset="0.882" stop-color="#DF8D94"/>
</linearGradient>
<linearGradient id="paint23_linear" x1="0.199486" y1="32.146" x2="63.7637" y2="32.146" gradientUnits="userSpaceOnUse">
<stop stop-color="#A56FA3"/>
<stop offset="0.882" stop-color="#DF8D94"/>
</linearGradient>
<linearGradient id="paint24_linear" x1="0.199525" y1="32.146" x2="63.7637" y2="32.146" gradientUnits="userSpaceOnUse">
<stop stop-color="#A56FA3"/>
<stop offset="0.882" stop-color="#DF8D94"/>
</linearGradient>
<linearGradient id="paint25_linear" x1="0.1995" y1="32.1459" x2="63.7636" y2="32.1459" gradientUnits="userSpaceOnUse">
<stop stop-color="#A56FA3"/>
<stop offset="0.882" stop-color="#DF8D94"/>
</linearGradient>
<linearGradient id="paint26_linear" x1="0.1995" y1="32.146" x2="63.7636" y2="32.146" gradientUnits="userSpaceOnUse">
<stop stop-color="#A56FA3"/>
<stop offset="0.882" stop-color="#DF8D94"/>
</linearGradient>
<linearGradient id="paint27_linear" x1="0.199534" y1="32.146" x2="63.7637" y2="32.146" gradientUnits="userSpaceOnUse">
<stop stop-color="#A56FA3"/>
<stop offset="0.882" stop-color="#DF8D94"/>
</linearGradient>
<linearGradient id="paint28_linear" x1="0.199525" y1="32.146" x2="63.7637" y2="32.146" gradientUnits="userSpaceOnUse">
<stop stop-color="#A56FA3"/>
<stop offset="0.882" stop-color="#DF8D94"/>
</linearGradient>
<linearGradient id="paint29_linear" x1="0.199534" y1="32.146" x2="63.7637" y2="32.146" gradientUnits="userSpaceOnUse">
<stop stop-color="#A56FA3"/>
<stop offset="0.882" stop-color="#DF8D94"/>
</linearGradient>
<linearGradient id="paint30_linear" x1="0.199496" y1="32.146" x2="63.7637" y2="32.146" gradientUnits="userSpaceOnUse">
<stop stop-color="#A56FA3"/>
<stop offset="0.882" stop-color="#DF8D94"/>
</linearGradient>
<linearGradient id="paint31_linear" x1="0.199484" y1="32.146" x2="63.7636" y2="32.146" gradientUnits="userSpaceOnUse">
<stop stop-color="#A56FA3"/>
<stop offset="0.882" stop-color="#DF8D94"/>
</linearGradient>
<linearGradient id="paint32_linear" x1="0.199483" y1="32.1459" x2="63.7636" y2="32.1459" gradientUnits="userSpaceOnUse">
<stop stop-color="#A56FA3"/>
<stop offset="0.882" stop-color="#DF8D94"/>
</linearGradient>
</defs>
</svg>
