<svg width="52" height="55" fill="none" xmlns="http://www.w3.org/2000/svg"><path d="M2.648 42.9C1.007 42.075 0 40.622 0 39.043v-8.772c0-.341.11-.664.306-.95.635-.898 2.058-1.203 3.152-.683L27.6 40.173c1.401.682 2.276 1.92 2.276 3.247v9.078c0 .412-.13.825-.393 1.184-.788 1.058-2.496 1.4-3.787.753L2.648 42.9zM38.63 26.252c1.401.682 2.277 1.92 2.277 3.248v18.423c0 .539-.35 1.04-.941 1.31L34.69 51.69a.744.744 0 01-.219.072V41.537c0-1.328-.853-2.548-2.233-3.23L11.054 27.92V16.35c0-.341.11-.664.306-.95.634-.898 2.058-1.203 3.151-.683l24.12 11.535zm10.55-13.598c1.423.664 2.298 1.92 2.298 3.265v26.91c0 .555-.372 1.058-.962 1.327l-5.013 2.224V27.633c0-1.327-.853-2.547-2.233-3.229L21.603 13.75V2.787c0-.34.11-.664.307-.95.635-.897 2.057-1.202 3.15-.682l24.12 11.5v-.002z" fill="#00D395"/></svg>